<svg width="14" height="15" viewBox="0 0 14 15" fill="none" xmlns="http://www.w3.org/2000/svg">
<path d="M1.5 15H12C12.8273 15 13.5 14.3273 13.5 13.5V5.25C13.5 5.05109 13.421 4.86032 13.2803 4.71967C13.1397 4.57902 12.9489 4.5 12.75 4.5H10.5V3.75C10.5 1.68225 8.81775 0 6.75 0C4.68225 0 3 1.68225 3 3.75V4.5H0.75C0.551088 4.5 0.360322 4.57902 0.21967 4.71967C0.0790176 4.86032 0 5.05109 0 5.25V13.5C0 14.3273 0.67275 15 1.5 15ZM4.5 3.75C4.5 2.5095 5.5095 1.5 6.75 1.5C7.9905 1.5 9 2.5095 9 3.75V4.5H4.5V3.75ZM1.5 6H3V7.5H4.5V6H9V7.5H10.5V6H12L12.0015 13.5H1.5V6Z" fill="white"/>
</svg>
