<svg width="11" height="15" viewBox="0 0 11 15" fill="none" xmlns="http://www.w3.org/2000/svg">
<path d="M3 13.5H7.5V15H3V13.5ZM8.9295 8.784C9.702 7.8795 10.5 6.94425 10.5 5.25C10.5 2.35575 8.14425 0 5.25 0C2.35575 0 0 2.35575 0 5.25C0 6.96375 0.80025 7.896 1.57575 8.7975C1.84425 9.111 2.1225 9.43575 2.38875 9.80925C2.49675 9.96375 2.67375 10.5562 2.832 11.25H2.25V12.75H8.25V11.25H7.6695C7.82925 10.5548 8.007 9.96075 8.11425 9.80625C8.37825 9.429 8.65875 9.10125 8.9295 8.784ZM6.8865 8.94375C6.561 9.4065 6.2895 10.5 6.132 11.25H4.36875C4.212 10.4985 3.93975 9.40275 3.6105 8.94C3.32907 8.55325 3.02974 8.17985 2.7135 7.821C1.983 6.9705 1.5 6.408 1.5 5.25C1.5 3.18225 3.18225 1.5 5.25 1.5C7.31775 1.5 9 3.18225 9 5.25C9 6.39075 8.51775 6.9555 7.78875 7.80975C7.509 8.13825 7.19175 8.5095 6.8865 8.94375Z" fill="white"/>
</svg>
