<svg width="15" height="15" viewBox="0 0 15 15" fill="none" xmlns="http://www.w3.org/2000/svg">
<path d="M14.9603 5.38573C14.9131 5.24688 14.8264 5.12487 14.7107 5.03477C14.595 4.94467 14.4554 4.89042 14.3093 4.87873L10.0335 4.53898L8.18327 0.443226C8.12434 0.31131 8.0285 0.199267 7.9073 0.120619C7.78611 0.0419709 7.64474 7.94093e-05 7.50026 1.12784e-07C7.35578 -7.91837e-05 7.21437 0.0416571 7.09309 0.120172C6.97181 0.198687 6.87584 0.310625 6.81677 0.442476L4.96652 4.53898L0.69077 4.87873C0.547111 4.89011 0.409773 4.94263 0.295186 5.03002C0.180599 5.11741 0.0936144 5.23597 0.0446396 5.3715C-0.00433529 5.50703 -0.013227 5.6538 0.0190284 5.79425C0.0512838 5.93471 0.12332 6.06289 0.22652 6.16348L3.38627 9.24373L2.26877 14.0827C2.23484 14.2292 2.24571 14.3825 2.29998 14.5227C2.35426 14.6629 2.44942 14.7836 2.57312 14.8691C2.69682 14.9545 2.84336 15.0008 2.99371 15.002C3.14406 15.0031 3.29128 14.959 3.41627 14.8755L7.50002 12.153L11.5838 14.8755C11.7115 14.9603 11.8622 15.004 12.0155 15.0006C12.1688 14.9972 12.3174 14.947 12.4413 14.8567C12.5652 14.7663 12.6585 14.6402 12.7086 14.4953C12.7587 14.3503 12.7632 14.1936 12.7215 14.046L11.3498 9.24598L14.7518 6.18448C14.9745 5.98348 15.0563 5.66998 14.9603 5.38573Z" fill="#FFAE2B"/>
</svg>
