<svg width="15" height="15" viewBox="0 0 15 15" fill="none" xmlns="http://www.w3.org/2000/svg">
<path d="M10.9275 15.0016C11.1267 15.0027 11.3241 14.9642 11.5083 14.8882C11.6924 14.8122 11.8596 14.7003 12 14.5591L14.0325 12.5266C14.1722 12.386 14.2506 12.196 14.2506 11.9978C14.2506 11.7997 14.1722 11.6096 14.0325 11.4691L11.0325 8.46907C10.892 8.32938 10.7019 8.25098 10.5038 8.25098C10.3056 8.25098 10.1155 8.32938 9.97503 8.46907L8.77502 9.66157C7.94421 9.44005 7.17476 9.03224 6.52502 8.46907C5.96337 7.8183 5.55575 7.04921 5.33252 6.21907L6.52502 5.01907C6.66471 4.87855 6.74312 4.68846 6.74312 4.49032C6.74312 4.29218 6.66471 4.10209 6.52502 3.96157L3.52502 0.961571C3.3845 0.821883 3.19441 0.743476 2.99627 0.743476C2.79814 0.743476 2.60805 0.821883 2.46753 0.961571L0.442525 3.00157C0.301249 3.142 0.189359 3.30917 0.113385 3.49331C0.0374107 3.67745 -0.00112557 3.87488 2.5025e-05 4.07407C0.0680672 6.95579 1.21958 9.70603 3.22503 11.7766C5.29556 13.782 8.0458 14.9335 10.9275 15.0016ZM3.00003 2.55907L4.94252 4.50157L3.97503 5.46907C3.88339 5.55491 3.81477 5.66237 3.77546 5.78162C3.73615 5.90086 3.7274 6.02807 3.75003 6.15157C4.03035 7.40435 4.62386 8.56556 5.47503 9.52657C6.43529 10.3788 7.5968 10.9725 8.85003 11.2516C8.97166 11.277 9.0977 11.2718 9.21683 11.2365C9.33596 11.2011 9.44444 11.1367 9.53253 11.0491L10.5 10.0591L12.4425 12.0016L10.9425 13.5016C8.45532 13.4375 6.08215 12.4449 4.29002 10.7191C2.55971 8.9262 1.56423 6.5499 1.50003 4.05907L3.00003 2.55907ZM13.5 6.75157H15C15.0195 5.85982 14.8582 4.97336 14.5258 4.14563C14.1935 3.31789 13.697 2.566 13.0663 1.93529C12.4356 1.30458 11.6837 0.808095 10.856 0.47576C10.0282 0.143426 9.14178 -0.0178775 8.25002 0.00157097V1.50157C8.94595 1.4775 9.6394 1.59683 10.2872 1.85215C10.9351 2.10746 11.5235 2.49331 12.0159 2.9857C12.5083 3.47809 12.8941 4.0665 13.1494 4.71435C13.4048 5.3622 13.5241 6.05564 13.5 6.75157Z" fill="white"/>
</svg>
